<svg xmlns="http://www.w3.org/2000/svg" xmlns:xlink="http://www.w3.org/1999/xlink" width="500" zoomAndPan="magnify" viewBox="0 0 375 374.999991" height="500" preserveAspectRatio="xMidYMid meet" version="1.0"><defs><g/><clipPath id="c0cf09a6d4"><path d="M 143.050781 175 L 181 175 L 181 219 L 143.050781 219 Z M 143.050781 175 " clip-rule="nonzero"/></clipPath><clipPath id="944ee9156a"><path d="M 143.050781 174 L 182 174 L 182 219 L 143.050781 219 Z M 143.050781 174 " clip-rule="nonzero"/></clipPath><clipPath id="4a304c7b3b"><path d="M 186 131.390625 L 189 131.390625 L 189 140 L 186 140 Z M 186 131.390625 " clip-rule="nonzero"/></clipPath></defs><rect x="-37.5" width="450" fill="#ffffff" y="-37.499999" height="449.999989" fill-opacity="1"/><rect x="-37.5" width="450" fill="#040d12" y="-37.499999" height="449.999989" fill-opacity="1"/><path fill="#80dbb2" d="M 173.347656 187.929688 L 176.402344 200.832031 L 197.902344 200.832031 L 201.070312 187.351562 L 203.878906 179.0625 L 206.761719 170.550781 C 210.410156 159.765625 204.488281 147.871094 193.527344 144.785156 C 191.609375 144.246094 189.589844 143.957031 187.5 143.957031 C 184.382812 143.957031 181.417969 144.597656 178.726562 145.757812 C 169.425781 149.765625 164.855469 160.355469 167.839844 170.035156 L 170.738281 179.445312 Z M 173.347656 187.929688 " fill-opacity="1" fill-rule="nonzero"/><path fill="#c4ffe4" d="M 197.902344 201.585938 L 176.402344 201.585938 C 176.050781 201.585938 175.75 201.34375 175.667969 201.003906 L 172.621094 188.128906 L 167.117188 170.257812 C 165.613281 165.375 165.921875 160.121094 167.988281 155.464844 C 170.074219 150.761719 173.78125 147.066406 178.429688 145.066406 C 181.296875 143.832031 184.347656 143.203125 187.5 143.203125 C 189.617188 143.203125 191.714844 143.492188 193.730469 144.0625 C 196.457031 144.828125 198.9375 146.128906 201.101562 147.921875 C 203.179688 149.648438 204.878906 151.75 206.15625 154.175781 C 207.476562 156.675781 208.269531 159.375 208.511719 162.199219 C 208.765625 165.117188 208.417969 168.007812 207.472656 170.792969 L 201.796875 187.558594 L 198.636719 201.003906 C 198.554688 201.34375 198.253906 201.585938 197.902344 201.585938 Z M 176.996094 200.078125 L 197.304688 200.078125 L 200.335938 187.179688 C 200.339844 187.15625 200.347656 187.132812 200.355469 187.109375 L 206.046875 170.308594 C 207.765625 165.238281 207.316406 159.613281 204.824219 154.875 C 202.378906 150.238281 198.296875 146.910156 193.324219 145.511719 C 191.4375 144.980469 189.476562 144.710938 187.5 144.710938 C 184.554688 144.710938 181.703125 145.296875 179.023438 146.449219 C 170.136719 150.28125 165.636719 160.324219 168.558594 169.8125 L 174.070312 187.707031 C 174.074219 187.726562 174.078125 187.742188 174.082031 187.757812 Z M 176.996094 200.078125 " fill-opacity="1" fill-rule="nonzero"/><path fill="#e3eeea" d="M 224.59375 167.203125 C 224.980469 167.589844 225.324219 168.007812 225.628906 168.464844 C 225.933594 168.917969 226.1875 169.398438 226.398438 169.902344 C 226.609375 170.40625 226.765625 170.929688 226.871094 171.464844 C 226.980469 172 227.03125 172.542969 227.03125 173.089844 C 227.03125 173.632812 226.980469 174.175781 226.871094 174.710938 C 226.765625 175.246094 226.609375 175.769531 226.398438 176.273438 C 226.1875 176.777344 225.933594 177.257812 225.628906 177.710938 C 225.324219 178.167969 224.980469 178.585938 224.59375 178.972656 C 224.207031 179.359375 223.789062 179.703125 223.332031 180.007812 C 222.878906 180.3125 222.398438 180.570312 221.894531 180.777344 C 221.390625 180.988281 220.867188 181.144531 220.332031 181.25 C 219.796875 181.359375 219.253906 181.410156 218.710938 181.410156 C 218.164062 181.410156 217.621094 181.359375 217.085938 181.25 C 216.550781 181.144531 216.027344 180.988281 215.523438 180.777344 C 215.019531 180.570312 214.539062 180.3125 214.085938 180.007812 C 213.628906 179.703125 213.210938 179.359375 212.824219 178.972656 C 212.4375 178.585938 212.09375 178.167969 211.789062 177.710938 C 211.484375 177.257812 211.230469 176.777344 211.019531 176.273438 C 210.808594 175.769531 210.652344 175.25 210.546875 174.710938 C 210.4375 174.175781 210.386719 173.636719 210.386719 173.089844 C 210.386719 172.542969 210.4375 172 210.546875 171.464844 C 210.652344 170.929688 210.808594 170.40625 211.019531 169.902344 C 211.230469 169.398438 211.484375 168.917969 211.789062 168.464844 C 212.09375 168.011719 212.4375 167.589844 212.824219 167.203125 C 213.210938 166.816406 213.628906 166.472656 214.085938 166.167969 C 214.539062 165.863281 215.019531 165.609375 215.523438 165.398438 C 216.027344 165.191406 216.550781 165.03125 217.085938 164.925781 C 217.621094 164.820312 218.164062 164.765625 218.707031 164.765625 C 219.253906 164.765625 219.796875 164.820312 220.332031 164.925781 C 220.867188 165.03125 221.390625 165.191406 221.894531 165.398438 C 222.398438 165.609375 222.878906 165.863281 223.332031 166.167969 C 223.789062 166.472656 224.207031 166.816406 224.59375 167.203125 Z M 224.59375 167.203125 " fill-opacity="1" fill-rule="nonzero"/><path fill="#c4ffe4" d="M 218.710938 182.164062 C 216.285156 182.164062 214.007812 181.21875 212.292969 179.507812 C 210.578125 177.792969 209.632812 175.511719 209.632812 173.089844 C 209.632812 170.664062 210.578125 168.382812 212.292969 166.667969 C 214.007812 164.957031 216.285156 164.011719 218.710938 164.011719 C 221.132812 164.011719 223.414062 164.957031 225.128906 166.667969 C 226.84375 168.382812 227.785156 170.664062 227.785156 173.089844 C 227.785156 175.511719 226.84375 177.792969 225.128906 179.507812 C 223.414062 181.21875 221.132812 182.164062 218.710938 182.164062 Z M 218.710938 165.519531 C 214.535156 165.519531 211.140625 168.914062 211.140625 173.089844 C 211.140625 177.261719 214.535156 180.65625 218.710938 180.65625 C 222.882812 180.65625 226.277344 177.261719 226.277344 173.089844 C 226.277344 168.914062 222.882812 165.519531 218.710938 165.519531 Z M 218.710938 165.519531 " fill-opacity="1" fill-rule="nonzero"/><path fill="#183d3d" d="M 227.378906 218.171875 C 229.488281 218.171875 231.195312 216.460938 231.195312 214.355469 L 231.195312 191.121094 C 231.195312 188.441406 229.019531 186.265625 226.339844 186.265625 L 211.082031 186.265625 L 201.371094 176.554688 C 199.839844 175.023438 197.355469 175.023438 195.820312 176.554688 C 194.289062 178.089844 194.289062 180.574219 195.820312 182.105469 L 209.695312 195.976562 L 209.695312 213.316406 C 209.695312 215.996094 211.867188 218.171875 214.546875 218.171875 Z M 227.378906 218.171875 " fill-opacity="1" fill-rule="nonzero"/><path fill="#c4ffe4" d="M 227.378906 218.925781 L 214.546875 218.925781 C 211.457031 218.925781 208.941406 216.410156 208.941406 213.316406 L 208.941406 196.289062 L 195.289062 182.636719 C 193.464844 180.8125 193.464844 177.847656 195.289062 176.023438 C 196.171875 175.140625 197.347656 174.652344 198.597656 174.652344 C 199.84375 174.652344 201.019531 175.140625 201.902344 176.023438 L 211.394531 185.511719 L 226.339844 185.511719 C 229.433594 185.511719 231.949219 188.027344 231.949219 191.121094 L 231.949219 214.355469 C 231.949219 216.875 229.898438 218.925781 227.378906 218.925781 Z M 198.597656 176.160156 C 197.75 176.160156 196.953125 176.488281 196.355469 177.089844 C 195.117188 178.324219 195.117188 180.335938 196.355469 181.570312 L 210.226562 195.441406 C 210.367188 195.585938 210.445312 195.777344 210.445312 195.976562 L 210.445312 213.316406 C 210.445312 215.578125 212.285156 217.417969 214.546875 217.417969 L 227.378906 217.417969 C 229.066406 217.417969 230.441406 216.042969 230.441406 214.355469 L 230.441406 191.121094 C 230.441406 188.859375 228.601562 187.019531 226.339844 187.019531 L 211.082031 187.019531 C 210.878906 187.019531 210.6875 186.941406 210.546875 186.800781 L 200.835938 177.089844 C 200.238281 176.488281 199.441406 176.160156 198.597656 176.160156 Z M 198.597656 176.160156 " fill-opacity="1" fill-rule="nonzero"/><path fill="#c4ffe4" d="M 227.378906 218.925781 C 224.859375 218.925781 222.8125 216.875 222.8125 214.355469 L 222.8125 195.976562 C 222.8125 195.558594 223.148438 195.222656 223.566406 195.222656 C 223.980469 195.222656 224.320312 195.558594 224.320312 195.976562 L 224.320312 214.355469 C 224.320312 216.042969 225.691406 217.417969 227.378906 217.417969 C 227.796875 217.417969 228.132812 217.753906 228.132812 218.171875 C 228.132812 218.585938 227.796875 218.925781 227.378906 218.925781 Z M 227.378906 218.925781 " fill-opacity="1" fill-rule="nonzero"/><path fill="#e3eeea" d="M 162.171875 167.203125 C 162.558594 167.589844 162.902344 168.007812 163.207031 168.464844 C 163.511719 168.917969 163.765625 169.398438 163.976562 169.902344 C 164.1875 170.40625 164.34375 170.929688 164.449219 171.464844 C 164.558594 172 164.609375 172.542969 164.609375 173.085938 C 164.609375 173.632812 164.558594 174.175781 164.449219 174.710938 C 164.34375 175.246094 164.1875 175.769531 163.976562 176.273438 C 163.765625 176.777344 163.511719 177.257812 163.207031 177.710938 C 162.902344 178.167969 162.558594 178.585938 162.171875 178.972656 C 161.785156 179.359375 161.367188 179.703125 160.910156 180.007812 C 160.457031 180.3125 159.976562 180.566406 159.472656 180.777344 C 158.96875 180.984375 158.445312 181.144531 157.910156 181.25 C 157.375 181.355469 156.832031 181.410156 156.289062 181.410156 C 155.742188 181.410156 155.199219 181.359375 154.664062 181.25 C 154.128906 181.144531 153.605469 180.988281 153.101562 180.777344 C 152.597656 180.566406 152.117188 180.3125 151.664062 180.007812 C 151.207031 179.703125 150.789062 179.359375 150.402344 178.972656 C 150.015625 178.585938 149.671875 178.167969 149.367188 177.710938 C 149.0625 177.257812 148.808594 176.777344 148.597656 176.273438 C 148.390625 175.769531 148.230469 175.246094 148.125 174.710938 C 148.015625 174.175781 147.964844 173.632812 147.964844 173.089844 C 147.964844 172.542969 148.015625 172 148.125 171.464844 C 148.230469 170.929688 148.386719 170.40625 148.597656 169.902344 C 148.808594 169.398438 149.0625 168.917969 149.367188 168.464844 C 149.671875 168.007812 150.015625 167.589844 150.402344 167.203125 C 150.789062 166.816406 151.207031 166.472656 151.664062 166.167969 C 152.117188 165.863281 152.597656 165.609375 153.101562 165.398438 C 153.605469 165.1875 154.128906 165.03125 154.664062 164.925781 C 155.199219 164.816406 155.742188 164.765625 156.285156 164.765625 C 156.832031 164.765625 157.375 164.816406 157.910156 164.925781 C 158.445312 165.03125 158.96875 165.1875 159.472656 165.398438 C 159.976562 165.609375 160.457031 165.863281 160.910156 166.167969 C 161.367188 166.472656 161.785156 166.816406 162.171875 167.203125 Z M 162.171875 167.203125 " fill-opacity="1" fill-rule="nonzero"/><path fill="#c4ffe4" d="M 156.289062 182.164062 C 153.863281 182.164062 151.582031 181.21875 149.871094 179.507812 C 148.15625 177.792969 147.210938 175.511719 147.210938 173.089844 C 147.210938 170.664062 148.15625 168.382812 149.871094 166.667969 C 151.582031 164.957031 153.863281 164.011719 156.289062 164.011719 C 158.710938 164.011719 160.992188 164.957031 162.707031 166.667969 C 164.421875 168.382812 165.363281 170.664062 165.363281 173.089844 C 165.363281 175.511719 164.421875 177.792969 162.707031 179.507812 C 160.992188 181.21875 158.710938 182.164062 156.289062 182.164062 Z M 156.289062 165.519531 C 152.113281 165.519531 148.71875 168.914062 148.71875 173.089844 C 148.71875 177.261719 152.113281 180.65625 156.289062 180.65625 C 160.460938 180.65625 163.855469 177.261719 163.855469 173.089844 C 163.855469 168.914062 160.460938 165.519531 156.289062 165.519531 Z M 156.289062 165.519531 " fill-opacity="1" fill-rule="nonzero"/><g clip-path="url(#c0cf09a6d4)"><path fill="#183d3d" d="M 147.617188 218.171875 C 145.511719 218.171875 143.804688 216.460938 143.804688 214.355469 L 143.804688 191.121094 C 143.804688 188.441406 145.976562 186.265625 148.660156 186.265625 L 163.917969 186.265625 L 173.628906 176.554688 C 175.160156 175.023438 177.644531 175.023438 179.175781 176.554688 C 180.707031 178.089844 180.707031 180.574219 179.175781 182.105469 L 165.304688 195.976562 L 165.304688 213.316406 C 165.304688 215.996094 163.128906 218.171875 160.449219 218.171875 Z M 147.617188 218.171875 " fill-opacity="1" fill-rule="nonzero"/></g><g clip-path="url(#944ee9156a)"><path fill="#c4ffe4" d="M 160.449219 218.925781 L 147.617188 218.925781 C 145.097656 218.925781 143.050781 216.875 143.050781 214.355469 L 143.050781 191.121094 C 143.050781 188.027344 145.566406 185.511719 148.660156 185.511719 L 163.605469 185.511719 L 173.09375 176.023438 C 174.917969 174.199219 177.886719 174.199219 179.707031 176.023438 C 181.53125 177.847656 181.53125 180.8125 179.707031 182.636719 L 166.058594 196.289062 L 166.058594 213.316406 C 166.058594 216.410156 163.542969 218.925781 160.449219 218.925781 Z M 148.660156 187.019531 C 146.398438 187.019531 144.558594 188.859375 144.558594 191.121094 L 144.558594 214.355469 C 144.558594 216.042969 145.929688 217.417969 147.617188 217.417969 L 160.449219 217.417969 C 162.710938 217.417969 164.550781 215.578125 164.550781 213.316406 L 164.550781 195.976562 C 164.550781 195.777344 164.628906 195.585938 164.769531 195.441406 L 178.644531 181.570312 C 179.878906 180.335938 179.878906 178.324219 178.644531 177.089844 C 178.042969 176.488281 177.25 176.160156 176.402344 176.160156 C 175.554688 176.160156 174.757812 176.488281 174.160156 177.089844 L 164.449219 186.800781 C 164.308594 186.941406 164.117188 187.019531 163.917969 187.019531 Z M 148.660156 187.019531 " fill-opacity="1" fill-rule="nonzero"/></g><path fill="#c4ffe4" d="M 147.617188 218.925781 C 147.203125 218.925781 146.863281 218.585938 146.863281 218.171875 C 146.863281 217.753906 147.203125 217.417969 147.617188 217.417969 C 149.304688 217.417969 150.679688 216.042969 150.679688 214.355469 L 150.679688 195.976562 C 150.679688 195.558594 151.015625 195.222656 151.433594 195.222656 C 151.847656 195.222656 152.1875 195.558594 152.1875 195.976562 L 152.1875 214.355469 C 152.1875 216.875 150.136719 218.925781 147.617188 218.925781 Z M 147.617188 218.925781 " fill-opacity="1" fill-rule="nonzero"/><path fill="#183d3d" d="M 197.554688 200.832031 L 197.554688 213.316406 C 197.554688 215.996094 195.382812 218.171875 192.699219 218.171875 L 182.296875 218.171875 C 179.617188 218.171875 177.441406 215.996094 177.441406 213.316406 L 177.441406 200.832031 Z M 197.554688 200.832031 " fill-opacity="1" fill-rule="nonzero"/><path fill="#c4ffe4" d="M 192.699219 218.925781 L 182.296875 218.925781 C 179.203125 218.925781 176.6875 216.410156 176.6875 213.316406 L 176.6875 200.832031 C 176.6875 200.414062 177.027344 200.078125 177.441406 200.078125 L 197.554688 200.078125 C 197.972656 200.078125 198.308594 200.414062 198.308594 200.832031 L 198.308594 213.316406 C 198.308594 216.410156 195.792969 218.925781 192.699219 218.925781 Z M 178.195312 201.585938 L 178.195312 213.316406 C 178.195312 215.578125 180.035156 217.417969 182.296875 217.417969 L 192.699219 217.417969 C 194.960938 217.417969 196.800781 215.578125 196.800781 213.316406 L 196.800781 201.585938 Z M 178.195312 201.585938 " fill-opacity="1" fill-rule="nonzero"/><path fill="#c4ffe4" d="M 187.5 200.199219 C 187.082031 200.199219 186.746094 199.859375 186.746094 199.445312 L 186.746094 170.3125 C 186.746094 169.898438 187.082031 169.558594 187.5 169.558594 C 187.914062 169.558594 188.253906 169.898438 188.253906 170.3125 L 188.253906 199.445312 C 188.253906 199.859375 187.914062 200.199219 187.5 200.199219 Z M 187.5 200.199219 " fill-opacity="1" fill-rule="nonzero"/><path fill="#c4ffe4" d="M 197.207031 171.066406 L 177.09375 171.066406 C 176.679688 171.066406 176.339844 170.730469 176.339844 170.3125 C 176.339844 169.898438 176.679688 169.558594 177.09375 169.558594 L 197.207031 169.558594 C 197.625 169.558594 197.960938 169.898438 197.960938 170.3125 C 197.960938 170.730469 197.625 171.066406 197.207031 171.066406 Z M 197.207031 171.066406 " fill-opacity="1" fill-rule="nonzero"/><path fill="#c4ffe4" d="M 221.484375 159.277344 L 214.546875 159.277344 C 214.132812 159.277344 213.792969 158.9375 213.792969 158.523438 C 213.792969 158.105469 214.132812 157.769531 214.546875 157.769531 L 221.484375 157.769531 C 221.902344 157.769531 222.238281 158.105469 222.238281 158.523438 C 222.238281 158.9375 221.902344 159.277344 221.484375 159.277344 Z M 221.484375 159.277344 " fill-opacity="1" fill-rule="nonzero"/><path fill="#c4ffe4" d="M 160.449219 159.277344 L 153.511719 159.277344 C 153.097656 159.277344 152.757812 158.9375 152.757812 158.523438 C 152.757812 158.105469 153.097656 157.769531 153.511719 157.769531 L 160.449219 157.769531 C 160.867188 157.769531 161.203125 158.105469 161.203125 158.523438 C 161.203125 158.9375 160.867188 159.277344 160.449219 159.277344 Z M 160.449219 159.277344 " fill-opacity="1" fill-rule="nonzero"/><g clip-path="url(#4a304c7b3b)"><path fill="#c4ffe4" d="M 187.5 139.855469 C 187.082031 139.855469 186.746094 139.519531 186.746094 139.101562 L 186.746094 132.167969 C 186.746094 131.75 187.082031 131.414062 187.5 131.414062 C 187.914062 131.414062 188.253906 131.75 188.253906 132.167969 L 188.253906 139.101562 C 188.253906 139.519531 187.914062 139.855469 187.5 139.855469 Z M 187.5 139.855469 " fill-opacity="1" fill-rule="nonzero"/></g><path fill="#c4ffe4" d="M 205.53125 145.40625 C 205.339844 145.40625 205.144531 145.332031 205 145.183594 C 204.703125 144.890625 204.703125 144.414062 205 144.117188 L 211.242188 137.875 C 211.535156 137.582031 212.011719 137.582031 212.308594 137.875 C 212.601562 138.171875 212.601562 138.648438 212.308594 138.941406 L 206.066406 145.183594 C 205.917969 145.332031 205.726562 145.40625 205.53125 145.40625 Z M 205.53125 145.40625 " fill-opacity="1" fill-rule="nonzero"/><path fill="#c4ffe4" d="M 170.160156 145.40625 C 169.964844 145.40625 169.773438 145.332031 169.625 145.183594 L 163.382812 138.941406 C 163.089844 138.648438 163.089844 138.171875 163.382812 137.875 C 163.679688 137.582031 164.15625 137.582031 164.449219 137.875 L 170.691406 144.117188 C 170.988281 144.414062 170.988281 144.890625 170.691406 145.183594 C 170.546875 145.332031 170.351562 145.40625 170.160156 145.40625 Z M 170.160156 145.40625 " fill-opacity="1" fill-rule="nonzero"/><g fill="#e3eeea" fill-opacity="1"><g transform="translate(111.667424, 257.729954)"><g><path d="M 4.328125 -6.578125 C 3.703125 -6.578125 3.21875 -6.34375 2.875 -5.875 C 2.53125 -5.40625 2.359375 -4.75 2.359375 -3.90625 C 2.359375 -2.15625 3.015625 -1.28125 4.328125 -1.28125 C 4.878906 -1.28125 5.546875 -1.414062 6.328125 -1.6875 L 6.328125 -0.296875 C 5.679688 -0.0234375 4.960938 0.109375 4.171875 0.109375 C 3.023438 0.109375 2.148438 -0.234375 1.546875 -0.921875 C 0.941406 -1.617188 0.640625 -2.617188 0.640625 -3.921875 C 0.640625 -4.734375 0.785156 -5.445312 1.078125 -6.0625 C 1.378906 -6.675781 1.804688 -7.144531 2.359375 -7.46875 C 2.921875 -7.800781 3.578125 -7.96875 4.328125 -7.96875 C 5.085938 -7.96875 5.851562 -7.78125 6.625 -7.40625 L 6.078125 -6.0625 C 5.785156 -6.195312 5.488281 -6.316406 5.1875 -6.421875 C 4.894531 -6.523438 4.609375 -6.578125 4.328125 -6.578125 Z M 4.328125 -6.578125 "/></g></g></g><g fill="#e3eeea" fill-opacity="1"><g transform="translate(119.650745, 257.729954)"><g><path d="M 8.109375 -3.9375 C 8.109375 -2.632812 7.785156 -1.632812 7.140625 -0.9375 C 6.503906 -0.238281 5.582031 0.109375 4.375 0.109375 C 3.175781 0.109375 2.253906 -0.238281 1.609375 -0.9375 C 0.960938 -1.632812 0.640625 -2.640625 0.640625 -3.953125 C 0.640625 -5.253906 0.960938 -6.25 1.609375 -6.9375 C 2.253906 -7.625 3.179688 -7.96875 4.390625 -7.96875 C 5.597656 -7.96875 6.519531 -7.617188 7.15625 -6.921875 C 7.789062 -6.234375 8.109375 -5.238281 8.109375 -3.9375 Z M 2.390625 -3.9375 C 2.390625 -3.0625 2.554688 -2.398438 2.890625 -1.953125 C 3.222656 -1.515625 3.71875 -1.296875 4.375 -1.296875 C 5.707031 -1.296875 6.375 -2.175781 6.375 -3.9375 C 6.375 -5.707031 5.710938 -6.59375 4.390625 -6.59375 C 3.722656 -6.59375 3.222656 -6.367188 2.890625 -5.921875 C 2.554688 -5.472656 2.390625 -4.8125 2.390625 -3.9375 Z M 2.390625 -3.9375 "/></g></g></g><g fill="#e3eeea" fill-opacity="1"><g transform="translate(129.378431, 257.729954)"><g><path d="M 7.953125 0 L 5.84375 0 L 2.421875 -5.9375 L 2.375 -5.9375 C 2.4375 -4.882812 2.46875 -4.140625 2.46875 -3.703125 L 2.46875 0 L 0.984375 0 L 0.984375 -7.859375 L 3.09375 -7.859375 L 6.5 -1.96875 L 6.53125 -1.96875 C 6.476562 -2.988281 6.453125 -3.710938 6.453125 -4.140625 L 6.453125 -7.859375 L 7.953125 -7.859375 Z M 7.953125 0 "/></g></g></g><g fill="#e3eeea" fill-opacity="1"><g transform="translate(139.293972, 257.729954)"><g><path d="M 5.515625 0 L 0.984375 0 L 0.984375 -7.859375 L 5.515625 -7.859375 L 5.515625 -6.484375 L 2.65625 -6.484375 L 2.65625 -4.765625 L 5.3125 -4.765625 L 5.3125 -3.40625 L 2.65625 -3.40625 L 2.65625 -1.375 L 5.515625 -1.375 Z M 5.515625 0 "/></g></g></g><g fill="#e3eeea" fill-opacity="1"><g transform="translate(146.429263, 257.729954)"><g><path d="M 4.328125 -6.578125 C 3.703125 -6.578125 3.21875 -6.34375 2.875 -5.875 C 2.53125 -5.40625 2.359375 -4.75 2.359375 -3.90625 C 2.359375 -2.15625 3.015625 -1.28125 4.328125 -1.28125 C 4.878906 -1.28125 5.546875 -1.414062 6.328125 -1.6875 L 6.328125 -0.296875 C 5.679688 -0.0234375 4.960938 0.109375 4.171875 0.109375 C 3.023438 0.109375 2.148438 -0.234375 1.546875 -0.921875 C 0.941406 -1.617188 0.640625 -2.617188 0.640625 -3.921875 C 0.640625 -4.734375 0.785156 -5.445312 1.078125 -6.0625 C 1.378906 -6.675781 1.804688 -7.144531 2.359375 -7.46875 C 2.921875 -7.800781 3.578125 -7.96875 4.328125 -7.96875 C 5.085938 -7.96875 5.851562 -7.78125 6.625 -7.40625 L 6.078125 -6.0625 C 5.785156 -6.195312 5.488281 -6.316406 5.1875 -6.421875 C 4.894531 -6.523438 4.609375 -6.578125 4.328125 -6.578125 Z M 4.328125 -6.578125 "/></g></g></g><g fill="#e3eeea" fill-opacity="1"><g transform="translate(154.412583, 257.729954)"><g><path d="M 4.015625 0 L 2.359375 0 L 2.359375 -6.46875 L 0.21875 -6.46875 L 0.21875 -7.859375 L 6.15625 -7.859375 L 6.15625 -6.46875 L 4.015625 -6.46875 Z M 4.015625 0 "/></g></g></g><g fill="#e3eeea" fill-opacity="1"><g transform="translate(161.757198, 257.729954)"><g><path d="M 5.796875 0 L 5.21875 -1.875 L 2.359375 -1.875 L 1.796875 0 L 0 0 L 2.765625 -7.890625 L 4.8125 -7.890625 L 7.59375 0 Z M 4.828125 -3.265625 C 4.304688 -4.960938 4.007812 -5.921875 3.9375 -6.140625 C 3.875 -6.359375 3.828125 -6.535156 3.796875 -6.671875 C 3.679688 -6.210938 3.34375 -5.078125 2.78125 -3.265625 Z M 4.828125 -3.265625 "/></g></g></g><g fill="#e3eeea" fill-opacity="1"><g transform="translate(170.320187, 257.729954)"><g><path d="M 7.953125 0 L 5.84375 0 L 2.421875 -5.9375 L 2.375 -5.9375 C 2.4375 -4.882812 2.46875 -4.140625 2.46875 -3.703125 L 2.46875 0 L 0.984375 0 L 0.984375 -7.859375 L 3.09375 -7.859375 L 6.5 -1.96875 L 6.53125 -1.96875 C 6.476562 -2.988281 6.453125 -3.710938 6.453125 -4.140625 L 6.453125 -7.859375 L 7.953125 -7.859375 Z M 7.953125 0 "/></g></g></g><g fill="#e3eeea" fill-opacity="1"><g transform="translate(180.235726, 257.729954)"><g><path d="M 7.5 -4 C 7.5 -2.707031 7.128906 -1.71875 6.390625 -1.03125 C 5.660156 -0.34375 4.601562 0 3.21875 0 L 0.984375 0 L 0.984375 -7.859375 L 3.453125 -7.859375 C 4.734375 -7.859375 5.726562 -7.519531 6.4375 -6.84375 C 7.144531 -6.164062 7.5 -5.21875 7.5 -4 Z M 5.78125 -3.953125 C 5.78125 -5.640625 5.035156 -6.484375 3.546875 -6.484375 L 2.65625 -6.484375 L 2.65625 -1.375 L 3.375 -1.375 C 4.976562 -1.375 5.78125 -2.234375 5.78125 -3.953125 Z M 5.78125 -3.953125 "/></g></g></g><g fill="#e3eeea" fill-opacity="1"><g transform="translate(189.351539, 257.729954)"><g><path d="M 8.109375 -3.9375 C 8.109375 -2.632812 7.785156 -1.632812 7.140625 -0.9375 C 6.503906 -0.238281 5.582031 0.109375 4.375 0.109375 C 3.175781 0.109375 2.253906 -0.238281 1.609375 -0.9375 C 0.960938 -1.632812 0.640625 -2.640625 0.640625 -3.953125 C 0.640625 -5.253906 0.960938 -6.25 1.609375 -6.9375 C 2.253906 -7.625 3.179688 -7.96875 4.390625 -7.96875 C 5.597656 -7.96875 6.519531 -7.617188 7.15625 -6.921875 C 7.789062 -6.234375 8.109375 -5.238281 8.109375 -3.9375 Z M 2.390625 -3.9375 C 2.390625 -3.0625 2.554688 -2.398438 2.890625 -1.953125 C 3.222656 -1.515625 3.71875 -1.296875 4.375 -1.296875 C 5.707031 -1.296875 6.375 -2.175781 6.375 -3.9375 C 6.375 -5.707031 5.710938 -6.59375 4.390625 -6.59375 C 3.722656 -6.59375 3.222656 -6.367188 2.890625 -5.921875 C 2.554688 -5.472656 2.390625 -4.8125 2.390625 -3.9375 Z M 2.390625 -3.9375 "/></g></g></g><g fill="#e3eeea" fill-opacity="1"><g transform="translate(199.079223, 257.729954)"><g/></g></g><g fill="#e3eeea" fill-opacity="1"><g transform="translate(202.913634, 257.729954)"><g><path d="M 4.015625 0 L 2.359375 0 L 2.359375 -6.46875 L 0.21875 -6.46875 L 0.21875 -7.859375 L 6.15625 -7.859375 L 6.15625 -6.46875 L 4.015625 -6.46875 Z M 4.015625 0 "/></g></g></g><g fill="#e3eeea" fill-opacity="1"><g transform="translate(210.258246, 257.729954)"><g><path d="M 5.796875 0 L 5.21875 -1.875 L 2.359375 -1.875 L 1.796875 0 L 0 0 L 2.765625 -7.890625 L 4.8125 -7.890625 L 7.59375 0 Z M 4.828125 -3.265625 C 4.304688 -4.960938 4.007812 -5.921875 3.9375 -6.140625 C 3.875 -6.359375 3.828125 -6.535156 3.796875 -6.671875 C 3.679688 -6.210938 3.34375 -5.078125 2.78125 -3.265625 Z M 4.828125 -3.265625 "/></g></g></g><g fill="#e3eeea" fill-opacity="1"><g transform="translate(218.82123, 257.729954)"><g><path d="M 0.984375 0 L 0.984375 -7.859375 L 2.65625 -7.859375 L 2.65625 -1.375 L 5.84375 -1.375 L 5.84375 0 Z M 0.984375 0 "/></g></g></g><g fill="#e3eeea" fill-opacity="1"><g transform="translate(226.01019, 257.729954)"><g><path d="M 5.515625 0 L 0.984375 0 L 0.984375 -7.859375 L 5.515625 -7.859375 L 5.515625 -6.484375 L 2.65625 -6.484375 L 2.65625 -4.765625 L 5.3125 -4.765625 L 5.3125 -3.40625 L 2.65625 -3.40625 L 2.65625 -1.375 L 5.515625 -1.375 Z M 5.515625 0 "/></g></g></g><g fill="#e3eeea" fill-opacity="1"><g transform="translate(233.145478, 257.729954)"><g><path d="M 7.953125 0 L 5.84375 0 L 2.421875 -5.9375 L 2.375 -5.9375 C 2.4375 -4.882812 2.46875 -4.140625 2.46875 -3.703125 L 2.46875 0 L 0.984375 0 L 0.984375 -7.859375 L 3.09375 -7.859375 L 6.5 -1.96875 L 6.53125 -1.96875 C 6.476562 -2.988281 6.453125 -3.710938 6.453125 -4.140625 L 6.453125 -7.859375 L 7.953125 -7.859375 Z M 7.953125 0 "/></g></g></g><g fill="#e3eeea" fill-opacity="1"><g transform="translate(243.061016, 257.729954)"><g><path d="M 4.015625 0 L 2.359375 0 L 2.359375 -6.46875 L 0.21875 -6.46875 L 0.21875 -7.859375 L 6.15625 -7.859375 L 6.15625 -6.46875 L 4.015625 -6.46875 Z M 4.015625 0 "/></g></g></g><g fill="#e3eeea" fill-opacity="1"><g transform="translate(250.405628, 257.729954)"><g><path d="M 8.109375 -3.9375 C 8.109375 -2.632812 7.785156 -1.632812 7.140625 -0.9375 C 6.503906 -0.238281 5.582031 0.109375 4.375 0.109375 C 3.175781 0.109375 2.253906 -0.238281 1.609375 -0.9375 C 0.960938 -1.632812 0.640625 -2.640625 0.640625 -3.953125 C 0.640625 -5.253906 0.960938 -6.25 1.609375 -6.9375 C 2.253906 -7.625 3.179688 -7.96875 4.390625 -7.96875 C 5.597656 -7.96875 6.519531 -7.617188 7.15625 -6.921875 C 7.789062 -6.234375 8.109375 -5.238281 8.109375 -3.9375 Z M 2.390625 -3.9375 C 2.390625 -3.0625 2.554688 -2.398438 2.890625 -1.953125 C 3.222656 -1.515625 3.71875 -1.296875 4.375 -1.296875 C 5.707031 -1.296875 6.375 -2.175781 6.375 -3.9375 C 6.375 -5.707031 5.710938 -6.59375 4.390625 -6.59375 C 3.722656 -6.59375 3.222656 -6.367188 2.890625 -5.921875 C 2.554688 -5.472656 2.390625 -4.8125 2.390625 -3.9375 Z M 2.390625 -3.9375 "/></g></g></g><g fill="#e3eeea" fill-opacity="1"><g transform="translate(260.133311, 257.729954)"><g><path d="M 2.46875 -1.15625 C 2.28125 -0.425781 1.960938 0.429688 1.515625 1.421875 L 0.34375 1.421875 C 0.570312 0.460938 0.75 -0.4375 0.875 -1.28125 L 2.390625 -1.28125 Z M 2.46875 -1.15625 "/></g></g></g><g fill="#e3eeea" fill-opacity="1"><g transform="translate(130.276798, 272.729953)"><g><path d="M 4.328125 -6.578125 C 3.703125 -6.578125 3.21875 -6.34375 2.875 -5.875 C 2.53125 -5.40625 2.359375 -4.75 2.359375 -3.90625 C 2.359375 -2.15625 3.015625 -1.28125 4.328125 -1.28125 C 4.878906 -1.28125 5.546875 -1.414062 6.328125 -1.6875 L 6.328125 -0.296875 C 5.679688 -0.0234375 4.960938 0.109375 4.171875 0.109375 C 3.023438 0.109375 2.148438 -0.234375 1.546875 -0.921875 C 0.941406 -1.617188 0.640625 -2.617188 0.640625 -3.921875 C 0.640625 -4.734375 0.785156 -5.445312 1.078125 -6.0625 C 1.378906 -6.675781 1.804688 -7.144531 2.359375 -7.46875 C 2.921875 -7.800781 3.578125 -7.96875 4.328125 -7.96875 C 5.085938 -7.96875 5.851562 -7.78125 6.625 -7.40625 L 6.078125 -6.0625 C 5.785156 -6.195312 5.488281 -6.316406 5.1875 -6.421875 C 4.894531 -6.523438 4.609375 -6.578125 4.328125 -6.578125 Z M 4.328125 -6.578125 "/></g></g></g><g fill="#e3eeea" fill-opacity="1"><g transform="translate(138.260118, 272.729953)"><g><path d="M 2.65625 -4.359375 L 3.1875 -4.359375 C 3.71875 -4.359375 4.109375 -4.445312 4.359375 -4.625 C 4.609375 -4.800781 4.734375 -5.078125 4.734375 -5.453125 C 4.734375 -5.828125 4.601562 -6.09375 4.34375 -6.25 C 4.09375 -6.40625 3.695312 -6.484375 3.15625 -6.484375 L 2.65625 -6.484375 Z M 2.65625 -3.015625 L 2.65625 0 L 0.984375 0 L 0.984375 -7.859375 L 3.28125 -7.859375 C 4.34375 -7.859375 5.128906 -7.660156 5.640625 -7.265625 C 6.148438 -6.878906 6.40625 -6.289062 6.40625 -5.5 C 6.40625 -5.039062 6.28125 -4.628906 6.03125 -4.265625 C 5.78125 -3.910156 5.421875 -3.628906 4.953125 -3.421875 C 6.128906 -1.660156 6.898438 -0.519531 7.265625 0 L 5.421875 0 L 3.546875 -3.015625 Z M 2.65625 -3.015625 "/></g></g></g><g fill="#e3eeea" fill-opacity="1"><g transform="translate(146.495701, 272.729953)"><g><path d="M 5.515625 0 L 0.984375 0 L 0.984375 -7.859375 L 5.515625 -7.859375 L 5.515625 -6.484375 L 2.65625 -6.484375 L 2.65625 -4.765625 L 5.3125 -4.765625 L 5.3125 -3.40625 L 2.65625 -3.40625 L 2.65625 -1.375 L 5.515625 -1.375 Z M 5.515625 0 "/></g></g></g><g fill="#e3eeea" fill-opacity="1"><g transform="translate(153.630992, 272.729953)"><g><path d="M 5.796875 0 L 5.21875 -1.875 L 2.359375 -1.875 L 1.796875 0 L 0 0 L 2.765625 -7.890625 L 4.8125 -7.890625 L 7.59375 0 Z M 4.828125 -3.265625 C 4.304688 -4.960938 4.007812 -5.921875 3.9375 -6.140625 C 3.875 -6.359375 3.828125 -6.535156 3.796875 -6.671875 C 3.679688 -6.210938 3.34375 -5.078125 2.78125 -3.265625 Z M 4.828125 -3.265625 "/></g></g></g><g fill="#e3eeea" fill-opacity="1"><g transform="translate(162.193979, 272.729953)"><g><path d="M 7.953125 0 L 5.84375 0 L 2.421875 -5.9375 L 2.375 -5.9375 C 2.4375 -4.882812 2.46875 -4.140625 2.46875 -3.703125 L 2.46875 0 L 0.984375 0 L 0.984375 -7.859375 L 3.09375 -7.859375 L 6.5 -1.96875 L 6.53125 -1.96875 C 6.476562 -2.988281 6.453125 -3.710938 6.453125 -4.140625 L 6.453125 -7.859375 L 7.953125 -7.859375 Z M 7.953125 0 "/></g></g></g><g fill="#e3eeea" fill-opacity="1"><g transform="translate(172.10952, 272.729953)"><g><path d="M 7.5 -4 C 7.5 -2.707031 7.128906 -1.71875 6.390625 -1.03125 C 5.660156 -0.34375 4.601562 0 3.21875 0 L 0.984375 0 L 0.984375 -7.859375 L 3.453125 -7.859375 C 4.734375 -7.859375 5.726562 -7.519531 6.4375 -6.84375 C 7.144531 -6.164062 7.5 -5.21875 7.5 -4 Z M 5.78125 -3.953125 C 5.78125 -5.640625 5.035156 -6.484375 3.546875 -6.484375 L 2.65625 -6.484375 L 2.65625 -1.375 L 3.375 -1.375 C 4.976562 -1.375 5.78125 -2.234375 5.78125 -3.953125 Z M 5.78125 -3.953125 "/></g></g></g><g fill="#e3eeea" fill-opacity="1"><g transform="translate(181.225336, 272.729953)"><g><path d="M 8.109375 -3.9375 C 8.109375 -2.632812 7.785156 -1.632812 7.140625 -0.9375 C 6.503906 -0.238281 5.582031 0.109375 4.375 0.109375 C 3.175781 0.109375 2.253906 -0.238281 1.609375 -0.9375 C 0.960938 -1.632812 0.640625 -2.640625 0.640625 -3.953125 C 0.640625 -5.253906 0.960938 -6.25 1.609375 -6.9375 C 2.253906 -7.625 3.179688 -7.96875 4.390625 -7.96875 C 5.597656 -7.96875 6.519531 -7.617188 7.15625 -6.921875 C 7.789062 -6.234375 8.109375 -5.238281 8.109375 -3.9375 Z M 2.390625 -3.9375 C 2.390625 -3.0625 2.554688 -2.398438 2.890625 -1.953125 C 3.222656 -1.515625 3.71875 -1.296875 4.375 -1.296875 C 5.707031 -1.296875 6.375 -2.175781 6.375 -3.9375 C 6.375 -5.707031 5.710938 -6.59375 4.390625 -6.59375 C 3.722656 -6.59375 3.222656 -6.367188 2.890625 -5.921875 C 2.554688 -5.472656 2.390625 -4.8125 2.390625 -3.9375 Z M 2.390625 -3.9375 "/></g></g></g><g fill="#e3eeea" fill-opacity="1"><g transform="translate(190.953025, 272.729953)"><g/></g></g><g fill="#e3eeea" fill-opacity="1"><g transform="translate(194.787437, 272.729953)"><g><path d="M 2.625 0 L 0.984375 0 L 0.984375 -7.859375 L 5.484375 -7.859375 L 5.484375 -6.484375 L 2.625 -6.484375 L 2.625 -4.46875 L 5.296875 -4.46875 L 5.296875 -3.109375 L 2.625 -3.109375 Z M 2.625 0 "/></g></g></g><g fill="#e3eeea" fill-opacity="1"><g transform="translate(201.799277, 272.729953)"><g><path d="M 7.375 -7.859375 L 7.375 -2.765625 C 7.375 -2.191406 7.242188 -1.6875 6.984375 -1.25 C 6.722656 -0.8125 6.347656 -0.472656 5.859375 -0.234375 C 5.367188 -0.00390625 4.789062 0.109375 4.125 0.109375 C 3.113281 0.109375 2.328125 -0.144531 1.765625 -0.65625 C 1.210938 -1.175781 0.9375 -1.890625 0.9375 -2.796875 L 0.9375 -7.859375 L 2.59375 -7.859375 L 2.59375 -3.046875 C 2.59375 -2.441406 2.710938 -2 2.953125 -1.71875 C 3.203125 -1.4375 3.609375 -1.296875 4.171875 -1.296875 C 4.710938 -1.296875 5.101562 -1.4375 5.34375 -1.71875 C 5.59375 -2 5.71875 -2.445312 5.71875 -3.0625 L 5.71875 -7.859375 Z M 7.375 -7.859375 "/></g></g></g><g fill="#e3eeea" fill-opacity="1"><g transform="translate(211.086843, 272.729953)"><g><path d="M 4.015625 0 L 2.359375 0 L 2.359375 -6.46875 L 0.21875 -6.46875 L 0.21875 -7.859375 L 6.15625 -7.859375 L 6.15625 -6.46875 L 4.015625 -6.46875 Z M 4.015625 0 "/></g></g></g><g fill="#e3eeea" fill-opacity="1"><g transform="translate(218.431455, 272.729953)"><g><path d="M 7.375 -7.859375 L 7.375 -2.765625 C 7.375 -2.191406 7.242188 -1.6875 6.984375 -1.25 C 6.722656 -0.8125 6.347656 -0.472656 5.859375 -0.234375 C 5.367188 -0.00390625 4.789062 0.109375 4.125 0.109375 C 3.113281 0.109375 2.328125 -0.144531 1.765625 -0.65625 C 1.210938 -1.175781 0.9375 -1.890625 0.9375 -2.796875 L 0.9375 -7.859375 L 2.59375 -7.859375 L 2.59375 -3.046875 C 2.59375 -2.441406 2.710938 -2 2.953125 -1.71875 C 3.203125 -1.4375 3.609375 -1.296875 4.171875 -1.296875 C 4.710938 -1.296875 5.101562 -1.4375 5.34375 -1.71875 C 5.59375 -2 5.71875 -2.445312 5.71875 -3.0625 L 5.71875 -7.859375 Z M 7.375 -7.859375 "/></g></g></g><g fill="#e3eeea" fill-opacity="1"><g transform="translate(227.719022, 272.729953)"><g><path d="M 2.65625 -4.359375 L 3.1875 -4.359375 C 3.71875 -4.359375 4.109375 -4.445312 4.359375 -4.625 C 4.609375 -4.800781 4.734375 -5.078125 4.734375 -5.453125 C 4.734375 -5.828125 4.601562 -6.09375 4.34375 -6.25 C 4.09375 -6.40625 3.695312 -6.484375 3.15625 -6.484375 L 2.65625 -6.484375 Z M 2.65625 -3.015625 L 2.65625 0 L 0.984375 0 L 0.984375 -7.859375 L 3.28125 -7.859375 C 4.34375 -7.859375 5.128906 -7.660156 5.640625 -7.265625 C 6.148438 -6.878906 6.40625 -6.289062 6.40625 -5.5 C 6.40625 -5.039062 6.28125 -4.628906 6.03125 -4.265625 C 5.78125 -3.910156 5.421875 -3.628906 4.953125 -3.421875 C 6.128906 -1.660156 6.898438 -0.519531 7.265625 0 L 5.421875 0 L 3.546875 -3.015625 Z M 2.65625 -3.015625 "/></g></g></g><g fill="#e3eeea" fill-opacity="1"><g transform="translate(235.954602, 272.729953)"><g><path d="M 8.109375 -3.9375 C 8.109375 -2.632812 7.785156 -1.632812 7.140625 -0.9375 C 6.503906 -0.238281 5.582031 0.109375 4.375 0.109375 C 3.175781 0.109375 2.253906 -0.238281 1.609375 -0.9375 C 0.960938 -1.632812 0.640625 -2.640625 0.640625 -3.953125 C 0.640625 -5.253906 0.960938 -6.25 1.609375 -6.9375 C 2.253906 -7.625 3.179688 -7.96875 4.390625 -7.96875 C 5.597656 -7.96875 6.519531 -7.617188 7.15625 -6.921875 C 7.789062 -6.234375 8.109375 -5.238281 8.109375 -3.9375 Z M 2.390625 -3.9375 C 2.390625 -3.0625 2.554688 -2.398438 2.890625 -1.953125 C 3.222656 -1.515625 3.71875 -1.296875 4.375 -1.296875 C 5.707031 -1.296875 6.375 -2.175781 6.375 -3.9375 C 6.375 -5.707031 5.710938 -6.59375 4.390625 -6.59375 C 3.722656 -6.59375 3.222656 -6.367188 2.890625 -5.921875 C 2.554688 -5.472656 2.390625 -4.8125 2.390625 -3.9375 Z M 2.390625 -3.9375 "/></g></g></g><g fill="#80dbb2" fill-opacity="1"><g transform="translate(69.762333, 240.206132)"><g><path d="M 7.859375 -11.96875 C 6.722656 -11.96875 5.84375 -11.535156 5.21875 -10.671875 C 4.59375 -9.816406 4.28125 -8.625 4.28125 -7.09375 C 4.28125 -3.914062 5.472656 -2.328125 7.859375 -2.328125 C 8.859375 -2.328125 10.070312 -2.578125 11.5 -3.078125 L 11.5 -0.53125 C 10.332031 -0.0390625 9.023438 0.203125 7.578125 0.203125 C 5.503906 0.203125 3.914062 -0.425781 2.8125 -1.6875 C 1.707031 -2.945312 1.15625 -4.757812 1.15625 -7.125 C 1.15625 -8.601562 1.425781 -9.898438 1.96875 -11.015625 C 2.507812 -12.140625 3.285156 -13 4.296875 -13.59375 C 5.316406 -14.1875 6.503906 -14.484375 7.859375 -14.484375 C 9.242188 -14.484375 10.640625 -14.148438 12.046875 -13.484375 L 11.0625 -11.015625 C 10.53125 -11.265625 9.992188 -11.484375 9.453125 -11.671875 C 8.910156 -11.867188 8.378906 -11.96875 7.859375 -11.96875 Z M 7.859375 -11.96875 "/></g></g></g><g fill="#80dbb2" fill-opacity="1"><g transform="translate(87.761501, 240.206132)"><g><path d="M 14.75 -7.15625 C 14.75 -4.789062 14.160156 -2.972656 12.984375 -1.703125 C 11.816406 -0.429688 10.140625 0.203125 7.953125 0.203125 C 5.765625 0.203125 4.082031 -0.429688 2.90625 -1.703125 C 1.738281 -2.972656 1.15625 -4.796875 1.15625 -7.171875 C 1.15625 -9.554688 1.742188 -11.375 2.921875 -12.625 C 4.097656 -13.875 5.785156 -14.5 7.984375 -14.5 C 10.171875 -14.5 11.84375 -13.867188 13 -12.609375 C 14.164062 -11.347656 14.75 -9.53125 14.75 -7.15625 Z M 4.34375 -7.15625 C 4.34375 -5.5625 4.644531 -4.359375 5.25 -3.546875 C 5.851562 -2.742188 6.753906 -2.34375 7.953125 -2.34375 C 10.367188 -2.34375 11.578125 -3.945312 11.578125 -7.15625 C 11.578125 -10.375 10.378906 -11.984375 7.984375 -11.984375 C 6.773438 -11.984375 5.863281 -11.578125 5.25 -10.765625 C 4.644531 -9.953125 4.34375 -8.75 4.34375 -7.15625 Z M 4.34375 -7.15625 "/></g></g></g><g fill="#80dbb2" fill-opacity="1"><g transform="translate(108.933257, 240.206132)"><g><path d="M 10.53125 0 L 9.5 -3.40625 L 4.296875 -3.40625 L 3.265625 0 L 0 0 L 5.046875 -14.34375 L 8.734375 -14.34375 L 13.796875 0 Z M 8.78125 -5.9375 C 7.820312 -9.019531 7.28125 -10.757812 7.15625 -11.15625 C 7.039062 -11.5625 6.957031 -11.882812 6.90625 -12.125 C 6.6875 -11.289062 6.070312 -9.226562 5.0625 -5.9375 Z M 8.78125 -5.9375 "/></g></g></g><g fill="#80dbb2" fill-opacity="1"><g transform="translate(127.986699, 240.206132)"><g><path d="M 7.859375 -11.96875 C 6.722656 -11.96875 5.84375 -11.535156 5.21875 -10.671875 C 4.59375 -9.816406 4.28125 -8.625 4.28125 -7.09375 C 4.28125 -3.914062 5.472656 -2.328125 7.859375 -2.328125 C 8.859375 -2.328125 10.070312 -2.578125 11.5 -3.078125 L 11.5 -0.53125 C 10.332031 -0.0390625 9.023438 0.203125 7.578125 0.203125 C 5.503906 0.203125 3.914062 -0.425781 2.8125 -1.6875 C 1.707031 -2.945312 1.15625 -4.757812 1.15625 -7.125 C 1.15625 -8.601562 1.425781 -9.898438 1.96875 -11.015625 C 2.507812 -12.140625 3.285156 -13 4.296875 -13.59375 C 5.316406 -14.1875 6.503906 -14.484375 7.859375 -14.484375 C 9.242188 -14.484375 10.640625 -14.148438 12.046875 -13.484375 L 11.0625 -11.015625 C 10.53125 -11.265625 9.992188 -11.484375 9.453125 -11.671875 C 8.910156 -11.867188 8.378906 -11.96875 7.859375 -11.96875 Z M 7.859375 -11.96875 "/></g></g></g><g fill="#80dbb2" fill-opacity="1"><g transform="translate(145.985868, 240.206132)"><g><path d="M 13.5 0 L 10.484375 0 L 10.484375 -6.15625 L 4.828125 -6.15625 L 4.828125 0 L 1.796875 0 L 1.796875 -14.28125 L 4.828125 -14.28125 L 4.828125 -8.6875 L 10.484375 -8.6875 L 10.484375 -14.28125 L 13.5 -14.28125 Z M 13.5 0 "/></g></g></g><g fill="#80dbb2" fill-opacity="1"><g transform="translate(166.542631, 240.206132)"><g/></g></g><g fill="#80dbb2" fill-opacity="1"><g transform="translate(176.995916, 240.206132)"><g><path d="M 7.859375 -11.96875 C 6.722656 -11.96875 5.84375 -11.535156 5.21875 -10.671875 C 4.59375 -9.816406 4.28125 -8.625 4.28125 -7.09375 C 4.28125 -3.914062 5.472656 -2.328125 7.859375 -2.328125 C 8.859375 -2.328125 10.070312 -2.578125 11.5 -3.078125 L 11.5 -0.53125 C 10.332031 -0.0390625 9.023438 0.203125 7.578125 0.203125 C 5.503906 0.203125 3.914062 -0.425781 2.8125 -1.6875 C 1.707031 -2.945312 1.15625 -4.757812 1.15625 -7.125 C 1.15625 -8.601562 1.425781 -9.898438 1.96875 -11.015625 C 2.507812 -12.140625 3.285156 -13 4.296875 -13.59375 C 5.316406 -14.1875 6.503906 -14.484375 7.859375 -14.484375 C 9.242188 -14.484375 10.640625 -14.148438 12.046875 -13.484375 L 11.0625 -11.015625 C 10.53125 -11.265625 9.992188 -11.484375 9.453125 -11.671875 C 8.910156 -11.867188 8.378906 -11.96875 7.859375 -11.96875 Z M 7.859375 -11.96875 "/></g></g></g><g fill="#80dbb2" fill-opacity="1"><g transform="translate(194.995079, 240.206132)"><g><path d="M 14.75 -7.15625 C 14.75 -4.789062 14.160156 -2.972656 12.984375 -1.703125 C 11.816406 -0.429688 10.140625 0.203125 7.953125 0.203125 C 5.765625 0.203125 4.082031 -0.429688 2.90625 -1.703125 C 1.738281 -2.972656 1.15625 -4.796875 1.15625 -7.171875 C 1.15625 -9.554688 1.742188 -11.375 2.921875 -12.625 C 4.097656 -13.875 5.785156 -14.5 7.984375 -14.5 C 10.171875 -14.5 11.84375 -13.867188 13 -12.609375 C 14.164062 -11.347656 14.75 -9.53125 14.75 -7.15625 Z M 4.34375 -7.15625 C 4.34375 -5.5625 4.644531 -4.359375 5.25 -3.546875 C 5.851562 -2.742188 6.753906 -2.34375 7.953125 -2.34375 C 10.367188 -2.34375 11.578125 -3.945312 11.578125 -7.15625 C 11.578125 -10.375 10.378906 -11.984375 7.984375 -11.984375 C 6.773438 -11.984375 5.863281 -11.578125 5.25 -10.765625 C 4.644531 -9.953125 4.34375 -8.75 4.34375 -7.15625 Z M 4.34375 -7.15625 "/></g></g></g><g fill="#80dbb2" fill-opacity="1"><g transform="translate(216.166831, 240.206132)"><g><path d="M 14.46875 0 L 10.609375 0 L 4.40625 -10.796875 L 4.3125 -10.796875 C 4.4375 -8.890625 4.5 -7.53125 4.5 -6.71875 L 4.5 0 L 1.796875 0 L 1.796875 -14.28125 L 5.609375 -14.28125 L 11.8125 -3.578125 L 11.890625 -3.578125 C 11.785156 -5.441406 11.734375 -6.753906 11.734375 -7.515625 L 11.734375 -14.28125 L 14.46875 -14.28125 Z M 14.46875 0 "/></g></g></g><g fill="#80dbb2" fill-opacity="1"><g transform="translate(237.680245, 240.206132)"><g><path d="M 14.46875 0 L 10.609375 0 L 4.40625 -10.796875 L 4.3125 -10.796875 C 4.4375 -8.890625 4.5 -7.53125 4.5 -6.71875 L 4.5 0 L 1.796875 0 L 1.796875 -14.28125 L 5.609375 -14.28125 L 11.8125 -3.578125 L 11.890625 -3.578125 C 11.785156 -5.441406 11.734375 -6.753906 11.734375 -7.515625 L 11.734375 -14.28125 L 14.46875 -14.28125 Z M 14.46875 0 "/></g></g></g><g fill="#80dbb2" fill-opacity="1"><g transform="translate(259.19366, 240.206132)"><g><path d="M 10.015625 0 L 1.796875 0 L 1.796875 -14.28125 L 10.015625 -14.28125 L 10.015625 -11.796875 L 4.828125 -11.796875 L 4.828125 -8.65625 L 9.65625 -8.65625 L 9.65625 -6.1875 L 4.828125 -6.1875 L 4.828125 -2.5 L 10.015625 -2.5 Z M 10.015625 0 "/></g></g></g><g fill="#80dbb2" fill-opacity="1"><g transform="translate(275.650458, 240.206132)"><g><path d="M 7.859375 -11.96875 C 6.722656 -11.96875 5.84375 -11.535156 5.21875 -10.671875 C 4.59375 -9.816406 4.28125 -8.625 4.28125 -7.09375 C 4.28125 -3.914062 5.472656 -2.328125 7.859375 -2.328125 C 8.859375 -2.328125 10.070312 -2.578125 11.5 -3.078125 L 11.5 -0.53125 C 10.332031 -0.0390625 9.023438 0.203125 7.578125 0.203125 C 5.503906 0.203125 3.914062 -0.425781 2.8125 -1.6875 C 1.707031 -2.945312 1.15625 -4.757812 1.15625 -7.125 C 1.15625 -8.601562 1.425781 -9.898438 1.96875 -11.015625 C 2.507812 -12.140625 3.285156 -13 4.296875 -13.59375 C 5.316406 -14.1875 6.503906 -14.484375 7.859375 -14.484375 C 9.242188 -14.484375 10.640625 -14.148438 12.046875 -13.484375 L 11.0625 -11.015625 C 10.53125 -11.265625 9.992188 -11.484375 9.453125 -11.671875 C 8.910156 -11.867188 8.378906 -11.96875 7.859375 -11.96875 Z M 7.859375 -11.96875 "/></g></g></g><g fill="#80dbb2" fill-opacity="1"><g transform="translate(293.649632, 240.206132)"><g><path d="M 7.3125 0 L 4.28125 0 L 4.28125 -11.765625 L 0.40625 -11.765625 L 0.40625 -14.28125 L 11.1875 -14.28125 L 11.1875 -11.765625 L 7.3125 -11.765625 Z M 7.3125 0 "/></g></g></g></svg>